**ABCDEFGHIJKLMNOPQRSTUVWXYZabcdefghijklmnopqrstuvwxyz**************************
**PARASOLID !"#$%&'()*+,-./:;<=>?@[\]^_`{|}~0123456789**************************
**PART1;
MC=AMD64;
MC_MODEL=Intel64 Family 6 Model 165 Stepping 2, GenuineIntel;
MC_ID=unknown;
OS=Windows_NT;
OS_RELEASE=unknown;
FRU=Parasolid Version 33.1, build 247,  8- 6-2021;
APPL=SOLIDWORKS 2022-2022009;
SITE=;
USER=unknown;
FORMAT=text;
GUISE=transmit;
KEY=FILElight final para.x_t;
DATE=Fri Aug 30 11:06:59 2024;
**PART2;
SCH=SCH_3301247_33103;
USFLD_SIZE=0;
**PART3;
**END_OF_HEADER*****************************************************************
T51 : TRANSMIT FILE created by modeller version 330124723 SCH_3301247_33103_1300
6230 0 12 35 CCCI7 lattice222 0 CCCI4 mesh1006 0 I8 polyline1008 0 CCCCCCCDI5 ow
ner1040 0 CCCCCCI13 boundary_mesh1006 0 I17 boundary_polyline1008 0 CCCA16 index
_map_offset0 0 1 dA9 index_map82 0 A17 node_id_index_map82 0 A20 schema_embeddin
g_map82 0 A5 child12 0 A14 lowest_node_id0 0 1 dA16 mesh_offset_data206 0 Z1 964
 2 3 0 0 0 0 0 0 0 1e3 1e-8 0 4 0 1 0 1 1 5 6 7 8 0 0 9 10 11 0 0 0 0 0 0 0 81 2
55 2 2 949 12 1 13 0 0 0 0 14 70 11 CI9 list_type0 0 1 uI10 notransmit0 0 1 lCCC
DCCDI12 finger_index0 0 1 dI12 finger_block1012 0 CZ3 0 4 T1 0 0 10 20 1 15 15 1
3 255 5 99 0 1 0 16 0 0 17 0 51 255 6 744 0 18 19 0 0 +-.000884149550048701 -.00
0749999958240448 .003417089978641345 -1 -1387778780781446e-31 0 .003 13877787807
81446e-31 -1 0 31 255 7 747 0 20 21 0 0 --.000134149550048702 -.0007499999582404
48 .003417089978641345 -1 -1387778780781446e-31 0 1387778780781446e-31 -1 0 .003
 29 255 8 670 0 11 22 0 -.0046341495500487 -.000749999958240449 .006417089978641
35 19 8 CCCCCCCA5 owner12 0 Z9 33 0 1 17 0 23 V0 16 255 10 681 0 ?24 0 25 26 0 0
 1 18 255 11 668 0 24 0 27 8 ?1 17 255 24 0 28 29 30 11 31 10 0 32 +18 27 665 0
 33 11 34 22 ?1 17 33 0 35 36 32 27 37 38 0 39 +18 34 651 0 40 27 41 42 ?1 29 22
 667 0 27 42 8 -.004107979103214685 -.000749999958240449 .00641708997864135 29 4
2 653 0 34 43 22 -.000134149550048702 -.002191784977564235 .00604791797721015 29
 43 650 0 41 44 42 -.004107979103214685 -.002191784977564235 .00604791797721015
 18 41 648 0 45 34 46 43 ?1 29 44 647 0 46 47 43 .001307635469275082 -.000749999
958240448 .00604791797721015 18 46 645 0 48 41 49 44 ?1 29 47 638 0 49 50 44 -.0
001341495500487016 -.00374999995824045 .003417089978641345 18 49 636 0 51 46 52
 47 ?1 29 50 635 0 52 53 47 -.0046341495500487 -.00374999995824045 .003417089978
641345 18 52 633 0 54 49 55 50 ?1 29 53 627 0 55 56 50 -.0001341495500487014 -.0
0374999995824045 .00311708997864135 18 55 625 0 57 52 58 53 ?1 29 56 619 0 58 59
 53 .0028658504499513 -.000749999958240448 .003417089978641345 18 58 617 0 60 55
 61 56 ?1 29 59 616 0 61 62 56 .0028658504499513 -.000749999958240448 .003117089
97864135 18 61 614 0 63 58 64 59 ?1 29 62 487 0 64 65 59 -.0046341495500487 .000
750000041759552 .00641708997864135 18 64 485 0 66 61 67 62 ?1 29 65 484 0 67 68
 62 -.004107979103214685 .000750000041759552 .00641708997864135 18 67 482 0 69 6
4 70 65 ?1 29 68 475 0 70 71 65 -.0001341495500487022 .00219178506108334 .006047
91797721015 18 70 473 0 72 67 73 68 ?1 29 71 472 0 73 74 68 -.004107979103214685
 .002191785061083335 .00604791797721015 18 73 470 0 75 70 76 71 ?1 29 74 464 0 7
6 77 71 .001307635469275082 .000750000041759552 .00604791797721015 18 76 462 0 7
8 73 79 74 ?1 29 77 456 0 79 80 74 .0028658504499513 .000750000041759552 .003417
089978641345 18 79 454 0 81 76 82 77 ?1 29 80 448 0 82 83 77 .0028658504499513 .
000750000041759552 .00311708997864135 18 82 446 0 84 79 85 80 ?1 29 83 439 0 85
 86 80 -.0001341495500487024 .003750000041759555 .003417089978641345 18 85 437 0
 87 82 88 83 ?1 29 86 436 0 88 89 83 -.0046341495500487 .00375000004175955 .0034
17089978641345 18 88 434 0 90 85 91 86 ?1 29 89 433 0 91 92 86 -.000134149550048
7024 .003750000041759555 .00311708997864135 18 91 431 0 93 88 94 89 ?1 29 92 75
 0 94 95 89 -.0046341495500487 .00375000004175955 .00311708997864135 18 94 66 0
 96 91 97 92 ?1 29 95 78 0 97 0 92 -.0046341495500487 -.00374999995824045 .00311
708997864135 18 97 69 0 98 94 0 95 ?1 17 98 0 99 100 54 97 30 101 0 102 +15 255
 99 87 0 100 103 0 17 100 0 99 51 98 55 102 104 0 105 +17 54 0 99 98 51 52 106 1
07 0 30 +17 30 0 28 24 108 52 98 101 0 31 -16 101 634 0 ?98 109 110 111 0 0 1 17
 102 0 112 113 57 97 100 104 0 108 -15 112 49 0 114 115 0 17 113 0 112 116 102 9
4 108 117 0 0 -17 57 0 112 102 114 55 63 118 0 100 +16 104 58 0 ?100 119 117 120
 0 0 1 17 108 0 28 30 96 97 113 117 0 0 +15 28 89 0 30 16 0 17 96 0 28 108 90 94
 121 110 0 122 +16 117 62 0 ?108 104 123 124 0 0 1 16 123 471 0 ?125 117 126 127
 0 0 1 30 255 124 74 0 117 128 120 0 +-.0046341495500487 -.00374999995824045 .00
311708997864135 0 -1 0 30 128 7 0 129 130 124 0 +-.0046341495500487 -.0037499999
5824045 .00641708997864135 0 -1 0 30 120 73 0 104 124 131 0 +.0028658504499513 -
.00374999995824045 .00311708997864135 1 1387778780781446e-31 0 30 131 72 0 119 1
20 132 0 +.0028658504499513 -.00374999995824045 .00311708997864135 0 1 0 16 119
 615 0 ?84 133 104 131 0 0 1 30 132 71 0 133 131 134 0 +.0028658504499513 .00375
0000041759555 .00311708997864135 -1 -1387778780781446e-31 0 16 133 432 0 ?122 12
9 119 132 0 0 1 30 134 95 0 110 132 111 0 +-.0046341495500487 .00375000004175955
 .00641708997864135 0 0 -1 16 110 435 0 ?96 101 129 134 0 0 1 30 111 98 0 101 13
4 135 0 +-.0046341495500487 -.00374999995824045 .00641708997864135 0 0 -1 30 135
 318 0 109 111 136 0 -.001307635469275082 -.00333384149912576 .00604791797721015
 0 -1 0 16 109 646 0 ?78 137 101 135 0 0 1 30 136 339 0 137 135 138 0 -.00286585
04499513 -.00374999995824045 .003417089978641345 0 1 0 16 137 455 0 ?139 140 109
 136 0 0 1 30 138 440 0 140 136 141 0 --.000134149550048702 .003750000041759555
 .003417089978641345 -1 -1387778780781446e-31 0 16 140 438 0 ?87 142 137 138 0 0
 1 30 141 443 0 142 138 143 0 +-.0001341495500487024 .003750000041759555 .006417
08997864135 0 0 -1 16 142 441 0 ?144 145 140 141 0 0 1 31 143 451 0 145 141 146
 0 --.000134149550048702 .000750000041759552 .00311708997864135 0 0 1 1 0 0 .003
 16 145 449 0 ?147 148 142 143 0 0 1 30 146 459 0 148 143 149 0 -.00286585044995
13 .000750000041759552 .00641708997864135 0 0 -1 16 148 457 0 ?81 150 145 146 0
 0 1 31 149 467 0 150 146 151 0 +-.000134149550048702 .000750000041759552 .00341
7089978641345 0 -1 0 0 0 -1 .003 16 150 465 0 ?152 153 148 149 0 0 1 30 151 476
 0 153 149 154 0 --.0001341495500487022 .00219178506108334 .00604791797721015 1
 1387778780781446e-31 0 16 153 474 0 ?75 155 150 151 0 0 1 31 154 479 0 155 151
 156 0 +-.000134149550048702 .000750000041759552 .00604791797721015 0 0 1 1 0 0
 .001441785019323784 16 155 477 0 ?72 157 153 154 0 0 1 30 156 490 0 157 154 158
 0 +-.0046341495500487 .000750000041759552 .00641708997864135 -1 -13877787807814
46e-31 0 16 157 488 0 ?66 159 155 156 0 0 1 31 158 495 0 159 156 160 0 --.004634
1495500487 .000750000041759552 .003417089978641345 1 0 0 0 0 -1 .003 16 159 493
 0 ?90 161 157 158 0 0 1 31 160 500 0 161 158 162 0 --.004107979103214685 .00075
0000041759552 .003417089978641345 -1 0 0 0 0 1 .003 16 161 498 0 ?69 163 159 160
 0 0 1 31 162 564 0 164 160 165 0 +-.000134149550048702 .000750000041759552 .003
417089978641345 0 0 -1 -1 0 0 .003 16 164 547 0 ?166 167 20 162 0 0 1 31 165 563
 0 167 162 168 0 +-.000134149550048702 .000750000041759552 .003417089978641345 1
 1387778780781446e-31 0 -1387778780781446e-31 1 0 .003 16 167 545 0 ?169 126 164
 165 0 0 1 30 168 622 0 163 165 170 0 +.0028658504499513 -.000749999958240448 .0
0641708997864135 0 0 -1 16 163 620 0 ?171 118 161 168 0 0 1 31 170 630 0 118 168
 172 0 --.000134149550048702 -.000749999958240448 .00311708997864135 0 0 1 1 0 0
 .003 16 118 628 0 ?57 107 163 170 0 0 1 30 172 639 0 107 170 173 0 --.004634149
5500487 -.00374999995824045 .003417089978641345 1 1387778780781446e-31 0 16 107
 637 0 ?54 174 118 172 0 0 1 30 173 642 0 174 172 175 0 --.0001341495500487014 -
.00374999995824045 .00641708997864135 0 0 -1 16 174 640 0 ?51 176 107 173 0 0 1
 30 175 654 0 176 173 177 0 --.004107979103214685 -.002191784977564235 .00604791
797721015 -1 -1387778780781446e-31 0 16 176 652 0 ?40 178 174 175 0 0 1 31 177 6
57 0 178 175 179 0 +-.000134149550048702 -.000749999958240448 .00604791797721015
 0 0 1 1 0 0 .001441785019323784 16 178 655 0 ?48 180 176 177 0 0 1 31 179 662 0
 180 177 181 0 --.000134149550048702 -.000749999958240448 .003417089978641345 0
 -1 0 0 0 -1 .003 16 180 660 0 ?60 38 178 179 0 0 1 30 181 673 0 38 179 182 0 +-
.0001341495500487024 -.000749999958240448 .00641708997864135 1 1387778780781446e
-31 0 16 38 671 0 ?33 25 180 181 0 0 1 31 182 678 0 25 181 26 0 --.0041079791032
14685 -.000749999958240449 .003417089978641345 -1 0 0 0 0 1 .003 16 25 676 0 ?45
 10 38 182 0 0 1 31 26 683 0 10 182 21 0 --.0046341495500487 -.00074999995824044
9 .003417089978641345 1 0 0 0 0 -1 .003 31 21 748 0 183 26 7 0 +-.00013414955004
8702 -.000749999958240448 .003417089978641345 0 0 -1 -1 0 0 .003 16 183 731 0 ?1
84 20 0 21 0 0 1 17 184 0 185 105 186 49 187 183 0 0 +16 20 727 0 ?188 164 183 7
 0 0 1 17 188 0 189 187 190 49 191 20 0 184 +15 189 717 0 190 192 0 17 187 0 189
 193 188 58 184 183 0 186 -17 190 0 189 188 193 34 48 178 0 0 -17 191 0 194 195
 106 34 188 20 0 190 -15 194 715 0 191 18 0 17 195 0 194 196 191 41 40 176 0 0 -
17 106 0 194 191 31 49 54 107 0 188 -17 31 0 194 106 37 52 24 10 0 0 -17 37 0 19
4 31 196 11 33 38 0 0 -17 196 0 194 37 195 27 45 25 0 0 -17 45 0 197 198 39 41 1
96 25 0 125 +15 197 198 0 39 199 0 17 198 0 197 69 45 73 125 123 0 200 -17 39 0
 197 45 69 27 36 126 0 196 +17 125 0 201 40 75 41 198 123 0 195 +15 201 213 0 40
 202 0 17 40 0 201 48 125 34 195 176 0 191 +17 75 0 201 125 72 73 203 153 0 198
 +17 72 0 201 75 78 70 204 155 0 203 +17 203 0 205 206 200 70 75 153 0 169 -15 2
05 531 0 200 207 0 17 206 0 205 208 203 85 169 167 0 209 -17 200 0 205 203 210 7
3 69 161 0 0 -17 169 0 211 204 209 70 206 167 0 0 +15 211 533 0 204 212 0 17 204
 0 211 213 169 76 72 155 0 0 -17 209 0 211 169 213 85 166 164 0 214 -17 213 0 21
1 209 204 79 152 150 0 166 -17 166 0 215 216 214 79 209 164 0 0 +17 214 0 215 16
6 93 85 144 142 0 0 -15 215 535 0 166 217 0 17 93 0 215 214 216 91 147 145 0 144
 -17 144 0 218 122 87 91 214 142 0 116 +15 218 83 0 87 219 0 17 122 0 218 121 14
4 94 116 133 0 113 +17 87 0 218 144 121 85 208 140 0 206 +17 116 0 112 147 113 9
1 122 133 0 0 -17 147 0 112 114 116 82 93 145 0 216 +17 114 0 112 57 147 61 84 1
19 0 0 -17 216 0 215 93 166 82 81 148 0 0 -17 81 0 220 139 84 79 216 148 0 221 +
15 220 85 0 139 222 0 17 139 0 220 171 81 58 221 137 0 187 +17 84 0 220 81 171 8
2 114 119 0 147 +17 221 0 223 152 60 79 139 137 0 213 -15 223 373 0 224 225 0 17
 152 0 223 224 221 76 213 150 0 204 +17 60 0 223 221 224 58 193 180 0 139 +17 22
4 0 223 60 152 46 78 109 0 193 -17 193 0 189 190 187 46 60 180 0 0 -17 78 0 201
 72 48 76 224 109 0 152 +17 48 0 201 78 40 46 190 178 0 224 +14 255 225 372 226
 ?207 202 223 5 227 +0 0 207 202 23 81 1 226 950 228 225 229 0 0 230 231 14 207
 530 230 ?212 225 205 5 232 +0 0 212 225 23 14 202 211 233 ?225 199 201 5 234 +0
 0 225 199 23 51 227 392 0 225 235 236 0 +-.000134149550048702 4175955094396115e
-26 .003417089978641345 0 -1 0 .003 0 0 -1 13 23 34 0 0 0 0 0 0 9 16 14 16 90 23
7 ?103 0 28 5 235 -0 0 103 0 23 81 1 237 953 228 16 238 0 233 239 240 14 103 88
 239 ?222 16 99 5 241 -0 0 222 16 23 50 255 235 94 0 16 241 227 0 +-.00463414955
00487 -.00374999995824045 .00641708997864135 1 0 0 0 0 -1 50 241 93 0 103 242 23
5 0 +.0028658504499513 -.00374999995824045 .00641708997864135 -1387778780781446e
-31 1 0 -1 -1387778780781446e-31 0 50 242 92 0 222 243 241 0 +.0028658504499513
 -.00374999995824045 .00641708997864135 -1 0 0 0 0 1 14 222 86 244 ?219 103 220
 5 242 -0 0 219 103 23 50 243 91 0 219 245 242 0 +.0028658504499513 .00375000004
1759555 .00641708997864135 1387778780781446e-31 -1 0 1 1387778780781446e-31 0 14
 219 84 246 ?247 222 218 5 243 -0 0 247 222 23 50 245 70 0 115 248 243 0 +-.0008
84149550048702 4175955094396115e-26 .00311708997864135 0 0 1 1 0 0 14 115 48 249
 ?199 247 112 5 245 -0 0 199 247 23 50 248 3 0 247 250 245 0 +-.0008841495500487
02 4175955094396115e-26 .00641708997864135 0 0 1 1 0 0 14 247 1 251 ?115 219 35
 5 248 +0 0 115 219 23 50 250 219 0 199 234 248 0 +-.004107979103214685 -.003333
84149912576 .00604791797721015 -1 0 0 0 0 1 14 199 195 252 ?202 115 197 5 250 -0
 0 202 115 23 50 234 224 0 202 0 250 0 +-.000884149550048702 4175955094396115e-2
6 .00604791797721015 0 0 1 1 0 0 81 1 252 959 228 199 253 0 251 254 255 80 255 1
 228 256 257 9000 1 1 1 1 1 1 1 1 0 FFFFTFTFFFFFFF1 81 1 253 891 258 199 0 252 2
59 260 261 81 1 251 958 228 247 262 0 249 252 263 81 1 254 960 228 212 264 0 252
 265 266 82 255 1 255 885522579 14 212 532 254 ?217 207 211 5 267 +0 0 217 207 2
3 81 1 264 895 258 212 268 254 269 270 271 81 1 265 961 228 217 270 0 254 272 27
3 82 1 266 887816339 14 217 534 265 ?18 212 215 5 236 +0 0 18 212 23 81 1 270 89
6 258 217 0 265 264 274 275 81 1 272 962 228 18 274 0 265 276 277 82 1 273 88807
8483 14 18 714 272 ?192 217 194 5 6 +0 0 192 217 23 81 1 274 897 258 18 0 272 27
0 278 279 81 1 276 963 228 192 278 0 272 280 281 82 1 277 888340627 14 192 716 2
76 ?282 18 189 5 19 +0 0 282 18 23 81 1 278 898 258 192 283 276 274 284 285 81 1
 280 964 228 282 284 0 276 0 286 82 1 281 888537235 14 282 718 280 ?0 192 185 5
 287 +0 0 0 192 23 81 1 284 899 258 282 0 280 278 0 288 82 1 286 888733843 80 1
 258 0 289 8001 0 0 0 0 3 5 0 0 0 FFFFTFTFFFFFFF2 83 255 3 288 .792156862745098
 .819607843137255 .933333333333333 79 255 15 289 SDL/TYSA_COLOUR15 185 719 0 184
 282 0 51 287 746 0 282 232 19 0 +-.000134149550048702 -.000749999958240448 .006
41708997864135 0 0 -1 .003 -1 0 0 51 232 560 0 207 267 287 0 +-.0008841495500487
02 .000750000041759552 .003417089978641345 1 1387778780781446e-31 0 .003 -138777
8780781446e-31 1 0 53 255 19 745 0 192 287 6 0 +-.000134149550048702 -.000749999
958240448 .003417089978641345 .003 -1387778780781446e-31 1 0 -1 -138777878078144
6e-31 0 53 267 561 0 212 236 232 0 +-.000134149550048702 .000750000041759552 .00
3417089978641345 .003 1387778780781446e-31 -1 0 1 1387778780781446e-31 0 51 236
 562 0 217 227 267 0 +-.000134149550048702 .000750000041759552 .0064170899786413
5 0 0 -1 .003 -1 0 0 81 1 283 772 290 192 0 278 268 0 291 83 3 285 .792156862745
098 .819607843137255 .933333333333333 80 1 290 292 293 9000 0 0 0 0 3 5 0 0 0 FF
FFTFFFFFFFFF1 81 1 268 588 290 212 0 264 0 283 294 82 1 291 1 82 1 294 1 79 18 2
93 FILLET_CORNER_FACE83 3 279 .792156862745098 .819607843137255 .933333333333333
 83 3 275 .792156862745098 .819607843137255 .933333333333333 81 1 269 894 258 20
7 0 230 229 264 295 83 3 271 .792156862745098 .819607843137255 .933333333333333
 81 1 230 951 228 207 269 0 226 233 296 81 1 229 893 258 225 0 226 260 269 297 8
3 3 295 .792156862745098 .819607843137255 .933333333333333 81 1 260 892 258 202
 0 233 253 229 298 83 3 297 .792156862745098 .819607843137255 .933333333333333 8
1 1 233 952 228 202 260 0 230 237 299 83 3 298 .694117647058824 .098039215686274
5 .0980392156862745 82 1 299 884408467 82 1 296 884342931 81 1 262 889 258 247 0
 251 300 259 301 81 1 249 957 228 115 259 0 246 251 302 82 1 263 885391507 81 1
 259 890 258 115 0 249 262 253 303 81 1 246 956 228 219 300 0 244 249 304 82 1 3
02 885260435 81 1 300 888 258 219 0 246 305 262 306 81 1 244 955 228 222 305 0 2
39 246 307 82 1 304 885129363 81 1 305 887 258 222 0 244 308 300 309 81 1 239 95
4 228 103 308 0 237 244 310 82 1 307 884998291 81 1 308 886 258 103 0 239 238 30
5 311 82 1 310 884736147 81 1 238 885 258 16 0 237 0 308 312 83 3 311 .101960784
3137254 .1019607843137254 .1019607843137254 83 3 312 .1019607843137254 .10196078
43137254 .1019607843137254 83 3 309 .1019607843137254 .1019607843137254 .1019607
843137254 83 3 306 .1019607843137254 .1019607843137254 .1019607843137254 83 3 30
3 0 0 0 83 3 301 0 0 0 83 3 261 .792156862745098 .819607843137255 .9333333333333
33 79 14 257 SWEntUnchanged15 35 154 0 32 247 0 17 32 0 35 33 66 11 29 129 0 37
 +17 66 0 35 32 36 64 210 157 0 29 +17 29 0 28 90 24 64 32 129 0 313 -16 129 486
 0 ?32 110 133 128 0 0 1 17 90 0 28 96 29 88 313 159 0 121 +17 313 0 205 210 208
 64 90 159 0 0 -17 210 0 205 200 313 67 66 157 0 0 -17 208 0 205 313 206 88 87 1
40 0 0 -17 121 0 218 87 122 88 96 110 0 208 -17 36 0 35 66 33 67 39 126 0 210 -1
6 126 483 0 ?39 123 167 130 0 0 1 30 130 232 0 126 127 128 0 +-.0041079791032146
85 -.00333384149912576 .00641708997864135 0 -1 0 30 127 236 0 123 0 130 0 +-.004
107979103214685 -.00333384149912576 .00604791797721015 0 -1 0 82 1 240 884605075
 82 1 231 884211859 17 171 0 220 84 139 61 186 163 0 114 +17 186 0 185 184 63 58
 171 163 0 0 -17 63 0 185 186 105 61 57 118 0 171 -17 105 0 185 63 184 55 51 174
 0 0 -17 51 0 99 54 100 49 105 174 0 106 +17 69 0 197 39 198 67 200 161 0 36 +19
 17 100 0 1 0 9 5 S0 74 4 CI16 index_map_offset0 0 1 dCCZ20 15 10 0 0 314 315 28
3 316 284 317 318 280 13 2 0 0 0 0 0 0 0 0 0 0 81 2 314 124 319 1 0 315 0 0 0 32
0 81 2 315 128 321 1 314 316 0 0 0 322 81 2 316 809 323 1 315 317 0 0 0 324 81 2
 317 900 325 1 316 318 0 0 0 0 81 2 318 901 326 1 317 13 0 0 327 0 81 1 13 917 3
28 1 318 2 0 0 329 80 1 328 330 331 9000 1 1 1 1 1 1 1 1 0 FFTFFFFFFFFFFF1 82 1
 329 340977 79 10 331 BODY_MATCH80 2 326 332 333 8004 0 0 0 0 3 5 0 0 0 FFTFFFFF
FFFFFF2 3 83 1 327 1 79 16 333 SDL/TYSA_DENSITY80 2 325 334 335 9000 0 0 0 0 3 5
 0 0 0 FFTFFFFFFFFFFF9 1 79 16 335 BODY_RECIPE_200180 2 323 336 337 9000 0 0 0 0
 3 5 0 0 0 FFTFFFFFFFFFFF9 1 82 1 324 1 79 24 337 BODY_IN_LIGHTWEIGHT_PERM80 2 3
21 338 339 9000 0 0 0 0 3 5 0 0 0 FFTFFFFFFFFFFF9 1 82 1 322 75 79 30 339 LAST_B
ODY_MODIFYING_FEATURE_ID80 2 319 340 341 9000 0 0 0 0 3 5 0 0 0 FFTFFFFFFFFFFF9
 1 82 1 320 134 79 19 341 ENT_TIME_STAMP_200180 2 12 342 343 9000 0 0 0 0 3 5 0
 0 0 FFTFFFFFFFFFFF9 1 82 1 14 104 79 12 343 ATOM_ID_20011 0 
