**ABCDEFGHIJKLMNOPQRSTUVWXYZabcdefghijklmnopqrstuvwxyz**************************
**PARASOLID !"#$%&'()*+,-./:;<=>?@[\]^_`{|}~0123456789**************************
**PART1;
MC=AMD64;
MC_MODEL=Intel64 Family 6 Model 165 Stepping 2, GenuineIntel;
MC_ID=unknown;
OS=Windows_NT;
OS_RELEASE=unknown;
FRU=Parasolid Version 33.1, build 247,  8- 6-2021;
APPL=SOLIDWORKS 2022-2022009;
SITE=;
USER=unknown;
FORMAT=text;
GUISE=transmit;
KEY=FILElidar kutti.x_t;
DATE=Fri Aug 30 00:54:13 2024;
**PART2;
SCH=SCH_3301247_33103;
USFLD_SIZE=0;
**PART3;
**END_OF_HEADER*****************************************************************
T51 : TRANSMIT FILE created by modeller version 330124723 SCH_3301247_33103_1300
6230 0 12 35 CCCI7 lattice222 0 CCCI4 mesh1006 0 I8 polyline1008 0 CCCCCCCDI5 ow
ner1040 0 CCCCCCI13 boundary_mesh1006 0 I17 boundary_polyline1008 0 CCCA16 index
_map_offset0 0 1 dA9 index_map82 0 A17 node_id_index_map82 0 A20 schema_embeddin
g_map82 0 A5 child12 0 A14 lowest_node_id0 0 1 dA16 mesh_offset_data206 0 Z1 668
 2 3 0 0 0 0 0 0 0 1e3 1e-8 0 4 0 1 0 1 1 5 6 7 8 0 0 9 10 11 0 0 0 0 0 0 0 81 2
55 2 2 646 12 1 13 0 0 0 0 14 70 11 CI9 list_type0 0 1 uI10 notransmit0 0 1 lCCC
DCCDI12 finger_index0 0 1 dI12 finger_block1012 0 CZ3 0 4 T1 0 0 7 20 1 15 15 13
 255 5 99 0 1 0 16 0 0 17 0 51 255 6 94 0 16 18 0 0 -0 0 75e-5 0 0 -1 .00375 -1
 0 0 31 255 7 484 0 10 19 0 0 --.002335500338459285 .00165606157665012 0 0 0 1 1
 0 0 3e-4 29 255 8 75 0 20 21 0 0 .00375 0 19 8 CCCCCCCA5 owner12 0 Z9 33 0 1 17
 0 22 V0 16 255 10 481 0 ?23 0 24 7 0 0 1 18 255 11 30 0 25 0 26 27 ?1 17 255 25
 0 28 29 30 11 31 32 0 33 +18 26 27 0 30 11 34 35 ?1 29 27 32 0 11 35 36 0 .0037
5 75e-5 29 35 29 0 26 37 27 .00553928342735173 .00224917212989785 75e-5 29 36 78
 0 38 27 39 0 -.00375 0 18 38 69 0 40 41 0 36 ?1 29 39 77 0 41 36 21 .0055392834
2735173 -.00224917212989785 0 18 41 68 0 42 43 38 39 ?1 29 21 76 0 43 39 8 .0055
3928342735173 .00224917212989785 0 18 43 67 0 44 20 41 21 ?1 17 44 0 45 46 47 43
 48 49 0 50 +18 20 66 0 51 52 43 8 ?1 17 51 0 53 33 50 20 54 55 0 56 +18 52 21 0
 57 34 20 58 ?1 17 57 0 59 60 61 52 62 63 0 29 -18 34 24 0 62 26 52 37 ?1 29 58
 23 0 52 0 37 0 -.00375 75e-5 29 37 26 0 34 58 35 .00553928342735173 -.002249172
12989785 75e-5 17 62 0 28 30 29 34 57 63 0 61 +15 255 28 4 0 29 64 0 17 30 0 28
 25 62 26 65 66 0 46 +17 29 0 28 62 25 52 67 68 0 69 +16 63 9 0 ?62 66 68 70 0 0
 1 17 61 0 59 57 42 34 47 71 0 65 -15 59 87 0 42 72 0 17 42 0 59 61 60 41 40 73
 0 47 +17 47 0 45 44 65 41 61 71 0 48 +16 71 81 0 ?47 74 75 76 0 0 1 17 65 0 45
 47 46 34 30 66 0 0 -15 45 85 0 44 77 0 17 46 0 45 65 44 26 50 75 0 31 -16 66 13
 0 ?30 32 63 78 0 0 1 16 32 17 0 ?25 79 66 80 0 0 1 31 78 15 0 66 70 80 0 +.0055
3928342735173 0 75e-5 0 0 1 1 0 0 .00224917212989785 30 255 70 11 0 63 81 78 0 +
0 -.00375 75e-5 .965199754952245 .261513733941694 0 30 80 19 0 32 78 82 0 +0 .00
375 75e-5 -.965199754952245 .261513733941694 0 31 82 74 0 83 80 84 0 +0 0 0 0 0
 1 1 0 0 .00375 16 83 62 0 ?85 73 86 82 0 0 1 30 84 73 0 73 82 87 0 +0 -.00375 0
 .965199754952245 .261513733941694 0 16 73 58 0 ?42 49 83 84 0 0 1 31 87 72 0 49
 84 88 0 +.00553928342735173 0 0 0 0 1 1 0 0 .00224917212989785 16 49 54 0 ?44 5
5 73 87 0 0 1 30 88 71 0 55 87 89 0 +0 .00375 0 -.965199754952245 .2615137339416
94 0 16 55 50 0 ?51 68 49 88 0 0 1 30 89 95 0 79 88 90 0 +0 .00375 75e-5 0 0 -1
 16 79 79 0 ?56 75 32 89 0 0 1 30 90 96 0 75 89 76 0 +.00553928342735173 .002249
17212989785 75e-5 0 0 -1 16 75 80 0 ?50 71 79 90 0 0 1 30 76 97 0 71 90 91 0 +.0
0553928342735173 -.00224917212989785 75e-5 0 0 -1 30 91 98 0 74 76 92 0 +0 -.003
75 75e-5 0 0 -1 16 74 82 0 ?60 93 71 91 0 0 1 31 92 202 0 94 91 95 0 +.006098758
5846147 -.000125150984462153 0 0 0 1 1 0 0 .001114105040227464 16 94 214 0 ?96 8
6 97 92 0 0 1 31 95 261 0 98 92 99 0 -.00618990300181641 -.0001012698224458562 0
 0 0 1 1 0 0 .001453519804517132 16 98 258 0 ?100 101 93 95 0 0 1 31 99 320 0 10
1 95 102 0 -.00613606220537989 -739210601489247e-19 0 0 0 -1 -1 0 0 .00041435854
6564722 16 101 317 0 ?103 104 98 99 0 0 1 31 102 368 0 104 99 105 0 -.0041941278
8257281 -.001193925314524174 0 0 0 1 1 0 0 3e-4 16 104 365 0 ?106 107 101 102 0
 0 1 31 105 402 0 107 102 19 0 --.00232214505937726 -.001193925314524174 0 0 0 1
 1 0 0 3e-4 16 107 399 0 ?108 24 104 105 0 0 1 31 19 450 0 24 105 7 0 -.00421700
322835852 .00165606157665012 0 0 0 1 1 0 0 3e-4 16 24 447 0 ?109 10 107 19 0 0 1
 17 109 0 110 109 109 0 111 24 0 0 +15 110 465 0 109 112 0 17 111 0 113 111 111
 0 109 24 0 0 -15 113 449 0 111 114 115 14 255 114 48 116 ?117 64 118 5 119 -0 0
 117 64 22 15 115 401 0 120 114 121 17 120 0 115 120 120 0 108 107 0 0 -15 121 3
67 0 122 114 123 17 122 0 121 122 122 0 106 104 0 0 -15 123 260 0 124 114 125 17
 124 0 123 124 124 0 100 98 0 0 -15 125 49 0 126 114 0 17 126 0 125 54 40 20 85
 83 0 0 -17 54 0 125 48 126 43 51 55 0 0 -17 40 0 125 126 48 38 42 73 0 60 -17 8
5 0 127 69 56 38 126 83 0 0 +15 127 89 0 85 16 0 17 69 0 127 67 85 52 60 74 0 0
 -17 56 0 127 85 67 20 33 79 0 126 +17 67 0 127 56 69 11 29 68 0 0 -17 33 0 53 3
1 51 11 56 79 0 67 -15 53 83 0 51 128 0 17 31 0 53 50 33 26 25 32 0 0 -17 50 0 5
3 51 31 43 46 75 0 54 +14 128 84 129 ?64 77 53 5 130 -0 0 64 77 22 81 1 129 648
 131 128 132 0 116 133 134 14 64 1 133 ?114 128 135 5 136 +0 0 114 128 22 14 77
 86 137 ?128 72 45 5 138 -0 0 128 72 22 50 255 130 91 0 128 119 138 0 +0 .00375
 75e-5 -.261513733941694 -.965199754952245 0 .965199754952245 -.261513733941694
 0 13 22 34 0 0 0 0 0 0 9 16 14 16 90 139 ?72 0 127 5 6 -0 0 72 0 22 81 1 139 65
1 131 16 140 0 137 141 142 14 72 88 141 ?77 16 59 5 18 -0 0 77 16 22 81 1 141 65
2 131 72 143 0 139 144 145 50 18 93 0 72 138 6 0 +0 -.00375 75e-5 -.261513733941
694 .965199754952245 0 -.965199754952245 -.261513733941694 0 51 138 92 0 77 130
 18 0 -.00553928342735173 0 75e-5 0 0 -1 .00224917212989785 -1 0 0 80 255 1 131
 146 147 9000 1 1 1 1 1 1 1 1 0 FFFFTFTFFFFFFF1 81 1 143 578 148 72 0 141 140 14
9 150 81 1 144 653 131 117 151 0 141 152 153 82 255 1 145 -260374360 14 117 157
 144 ?154 114 155 5 156 -0 0 154 114 22 81 1 151 583 148 117 0 144 157 158 159 8
1 1 152 654 131 154 158 0 144 160 161 82 1 153 -246480728 14 154 162 152 ?162 11
7 163 5 164 +0 0 162 117 22 81 1 158 584 148 154 0 152 151 165 166 81 1 160 655
 131 162 165 0 152 167 168 82 1 161 -248446808 14 162 221 160 ?169 154 170 5 171
 -0 0 169 154 22 81 1 165 585 148 162 0 160 158 172 173 81 1 167 656 131 169 172
 0 160 174 175 82 1 168 -1010171736 14 169 273 167 ?176 162 177 5 178 -0 0 176 1
62 22 81 1 172 586 148 169 0 167 165 179 180 81 1 174 657 131 176 179 0 167 181
 182 82 1 175 202178728 14 176 276 174 ?183 169 184 5 185 -0 0 183 169 22 81 1 1
79 587 148 176 0 174 172 186 187 81 1 181 658 131 183 186 0 174 188 189 82 1 182
 199753896 14 183 281 181 ?190 176 191 5 192 +0 0 190 176 22 81 1 186 588 148 18
3 0 181 179 193 194 81 1 188 659 131 190 193 0 181 195 196 82 1 189 197787816 14
 190 330 188 ?197 183 198 5 199 -0 0 197 183 22 81 1 193 589 148 190 0 188 186 2
00 201 81 1 195 660 131 197 200 0 188 202 203 82 1 196 -1587609432 14 197 335 19
5 ?204 190 205 5 206 +0 0 204 190 22 81 1 200 590 148 197 0 195 193 207 208 81 1
 202 661 131 204 207 0 195 209 210 82 1 203 -1589575512 14 204 379 202 ?211 197
 212 5 213 -0 0 211 197 22 81 1 207 591 148 204 0 202 200 214 215 81 1 209 662 1
31 211 214 0 202 216 217 82 1 210 -1823342424 14 211 384 209 ?218 204 219 5 220
 +0 0 218 204 22 81 1 214 592 148 211 0 209 207 221 222 81 1 216 663 131 218 221
 0 209 223 224 82 1 217 -1825308504 14 218 413 216 ?225 211 226 5 227 -0 0 225 2
11 22 81 1 221 593 148 218 0 216 214 228 229 81 1 223 664 131 225 228 0 216 230
 231 82 1 224 -1819213656 14 225 418 223 ?112 218 232 5 233 +0 0 112 218 22 81 1
 228 594 148 225 0 223 221 234 235 81 1 230 665 131 112 234 0 223 236 237 82 1 2
31 -1821179736 14 112 461 230 ?238 225 239 5 240 -0 0 238 225 22 81 1 234 595 14
8 112 0 230 228 241 242 81 1 236 666 131 238 241 0 230 243 244 82 1 237 67901866
4 14 238 466 236 ?245 112 246 5 247 +0 0 245 112 22 81 1 241 596 148 238 0 236 2
34 248 249 81 1 243 667 131 245 248 0 236 250 251 82 1 244 677052584 14 245 495
 243 ?252 238 253 5 254 -0 0 252 238 22 81 1 248 597 148 245 0 243 241 255 256 8
1 1 250 668 131 252 255 0 243 0 257 82 1 251 683147432 14 252 500 250 ?0 245 258
 5 259 +0 0 0 245 22 81 1 255 598 148 252 0 250 248 0 260 82 1 257 681181352 80
 1 148 0 261 8001 0 0 0 0 3 5 0 0 0 FFFFTFTFFFFFFF2 83 255 3 260 .79215686274509
8 .819607843137255 .933333333333333 79 255 15 261 SDL/TYSA_COLOUR15 258 502 0 26
2 252 0 50 259 510 0 252 0 254 0 +-.002335500338459285 .00165606157665012 -.003
 0 0 -1 -1 0 0 51 254 508 0 245 259 247 0 --.002335500338459285 .001656061576650
12 -.003 0 0 1 3e-4 1 0 0 50 247 476 0 238 254 240 0 +.00421700322835852 .001656
06157665012 -.003 0 0 -1 -1 0 0 51 240 474 0 112 247 233 0 -.00421700322835852 .
00165606157665012 -.003 0 0 1 3e-4 1 0 0 50 233 428 0 225 240 227 0 +-.002322145
05937726 -.001193925314524174 -.003 0 0 -1 -1 0 0 51 227 426 0 218 233 220 0 --.
00232214505937726 -.001193925314524174 -.003 0 0 1 3e-4 1 0 0 50 220 394 0 211 2
27 213 0 +.00419412788257281 -.001193925314524174 -.003 0 0 -1 -1 0 0 51 213 392
 0 204 220 206 0 -.00419412788257281 -.001193925314524174 -.003 0 0 1 3e-4 1 0 0
 50 206 345 0 197 213 199 0 +.00613606220537989 -739210601489247e-19 .0018 0 0 1
 1 0 0 51 199 343 0 190 206 192 0 -.00613606220537989 -739210601489247e-19 .0018
 0 0 -1 .000414358546564722 -1 0 0 50 192 292 0 183 199 178 0 +.0061899030018164
1 -.0001012698224458562 -.00135 0 0 -1 -1 0 0 50 178 291 0 169 192 185 0 +.00618
990300181641 -.0001012698224458562 0 0 0 -1 -1 0 0 51 185 290 0 176 178 171 0 -.
00618990300181641 -.0001012698224458562 -.00135 0 0 1 .001453519804517132 1 0 0
 51 171 239 0 162 185 164 0 +.0060987585846147 -.000125150984462153 -.0021 0 0 1
 .001114105040227464 1 0 0 50 164 172 0 154 171 156 0 +0 0 .0036 0 0 1 1 0 0 51
 156 170 0 117 164 136 0 -0 0 .0036 0 0 -1 .00298996803252256 -1 0 0 50 136 3 0
 64 156 119 0 +0 0 75e-5 0 0 1 1 0 0 50 119 70 0 114 136 130 0 +0 0 0 0 0 1 1 0
 0 17 262 0 258 262 262 0 263 264 0 0 +17 263 0 253 263 263 0 262 264 0 0 -16 26
4 492 0 ?262 265 0 266 0 0 1 16 265 458 0 ?267 268 264 269 0 0 1 31 266 512 0 26
4 0 269 0 +-.002335500338459285 .00165606157665012 -.003 0 0 -1 -1 0 0 3e-4 31 2
69 478 0 265 266 270 0 +.00421700322835852 .00165606157665012 -.003 0 0 -1 -1 0
 0 3e-4 31 270 430 0 268 269 271 0 +-.00232214505937726 -.001193925314524174 -.0
03 0 0 -1 -1 0 0 3e-4 16 268 410 0 ?272 273 265 270 0 0 1 31 271 396 0 273 270 2
74 0 +.00419412788257281 -.001193925314524174 -.003 0 0 -1 -1 0 0 3e-4 16 273 37
6 0 ?275 276 268 271 0 0 1 31 274 347 0 276 271 277 0 +.00613606220537989 -73921
0601489247e-19 .0018 0 0 1 1 0 0 .000414358546564722 16 276 327 0 ?278 279 273 2
74 0 0 1 31 277 295 0 279 274 280 0 +.00618990300181641 -.0001012698224458562 -.
00135 0 0 -1 -1 0 0 .001453519804517132 16 279 270 0 ?281 97 276 277 0 0 1 31 28
0 242 0 97 277 282 0 +.0060987585846147 -.000125150984462153 75e-5 0 0 1 1 0 0 .
001114105040227464 16 97 218 0 ?283 94 279 280 0 0 1 31 282 174 0 86 280 284 0 +
0 0 .0036 0 0 1 1 0 0 .00298996803252256 16 86 154 0 ?285 83 94 282 0 0 1 31 284
 173 0 93 282 81 0 +0 0 75e-5 0 0 1 1 0 0 .00298996803252256 16 93 144 0 ?286 98
 74 284 0 0 1 31 81 7 0 68 284 70 0 +0 0 75e-5 0 0 1 1 0 0 .00375 16 68 5 0 ?29
 63 55 81 0 0 1 17 286 0 287 286 286 0 288 93 0 0 +15 287 161 0 286 117 0 17 288
 0 289 288 288 0 286 93 0 0 -15 289 146 0 288 64 28 17 285 0 163 285 285 0 290 8
6 0 0 +15 163 164 0 285 154 0 17 290 0 155 290 290 0 285 86 0 0 -15 155 160 0 29
0 117 287 17 283 0 170 283 283 0 291 97 0 0 +15 170 224 0 283 162 292 17 291 0 1
35 291 291 0 283 97 0 0 -15 135 208 0 291 64 289 15 292 225 0 293 162 0 17 293 0
 292 293 293 0 96 94 0 0 -17 96 0 294 96 96 0 293 94 0 0 +15 294 275 0 96 169 0
 17 281 0 191 281 281 0 295 279 0 0 +15 191 283 0 281 183 0 17 295 0 184 295 295
 0 281 279 0 0 -15 184 279 0 295 176 296 15 296 280 0 100 176 0 17 100 0 296 100
 100 0 124 98 0 0 +17 278 0 205 278 278 0 297 276 0 0 +15 205 337 0 278 197 0 17
 297 0 198 297 297 0 278 276 0 0 -15 198 333 0 297 190 298 15 298 334 0 103 190
 0 17 103 0 298 103 103 0 299 101 0 0 +17 299 0 177 299 299 0 103 101 0 0 -15 17
7 319 0 299 169 294 17 275 0 219 275 275 0 300 273 0 0 +15 219 386 0 275 211 0 1
7 300 0 212 300 300 0 275 273 0 0 -15 212 382 0 300 204 301 15 301 383 0 106 204
 0 17 106 0 301 106 106 0 122 104 0 0 +17 272 0 232 272 272 0 302 268 0 0 +15 23
2 420 0 272 225 0 17 302 0 226 302 302 0 272 268 0 0 -15 226 416 0 302 218 303 1
5 303 417 0 108 218 0 17 108 0 303 108 108 0 120 107 0 0 +17 267 0 246 267 267 0
 304 265 0 0 +15 246 468 0 267 238 0 17 304 0 239 304 304 0 267 265 0 0 -15 239
 464 0 304 112 110 15 253 498 0 263 245 305 15 305 499 0 23 245 0 17 23 0 305 23
 23 0 306 10 0 0 +17 306 0 118 306 306 0 23 10 0 0 -15 118 483 0 306 114 113 83
 3 256 .792156862745098 .819607843137255 .933333333333333 83 3 249 .792156862745
098 .819607843137255 .933333333333333 83 3 242 .792156862745098 .819607843137255
 .933333333333333 83 3 235 .792156862745098 .819607843137255 .933333333333333 83
 3 229 .792156862745098 .819607843137255 .933333333333333 83 3 222 .792156862745
098 .819607843137255 .933333333333333 83 3 215 .792156862745098 .819607843137255
 .933333333333333 83 3 208 .792156862745098 .819607843137255 .933333333333333 83
 3 201 .792156862745098 .819607843137255 .933333333333333 83 3 194 .792156862745
098 .819607843137255 .933333333333333 83 3 187 .792156862745098 .819607843137255
 .933333333333333 83 3 180 .792156862745098 .819607843137255 .933333333333333 83
 3 173 .792156862745098 .819607843137255 .933333333333333 83 3 166 .101960784313
7254 .1019607843137254 .1019607843137254 81 1 157 582 148 114 0 116 307 151 308
 83 3 159 .1019607843137254 .1019607843137254 .1019607843137254 81 1 116 647 131
 114 157 0 0 129 309 81 1 307 581 148 64 0 133 132 157 310 83 3 308 .79215686274
5098 .819607843137255 .933333333333333 81 1 133 649 131 64 307 0 129 137 311 81
 1 132 580 148 128 0 129 149 307 312 83 3 310 .792156862745098 .819607843137255
 .933333333333333 81 1 149 579 148 77 0 137 143 132 313 83 3 312 .79215686274509
8 .819607843137255 .933333333333333 81 1 137 650 131 77 149 0 133 139 314 83 3 3
13 .792156862745098 .819607843137255 .933333333333333 82 1 314 -260636504 82 1 3
11 -267452248 82 1 309 -261816152 81 1 140 577 148 16 0 139 0 143 315 83 3 150 .
792156862745098 .819607843137255 .933333333333333 83 3 315 .792156862745098 .819
607843137255 .933333333333333 79 14 147 SWEntUnchanged82 1 142 -260112216 82 1 1
34 -260898648 17 60 0 59 42 57 38 69 74 0 85 +17 48 0 125 40 54 41 44 49 0 0 -19
 17 100 0 1 0 9 5 S0 74 4 CI16 index_map_offset0 0 1 dCCZ20 15 7 0 0 316 317 250
 318 13 255 2 0 0 0 0 0 0 0 0 0 0 0 0 0 81 2 316 515 319 1 0 317 0 0 0 320 81 2
 317 521 321 1 316 318 0 0 0 322 81 1 318 575 323 1 317 13 0 0 324 81 2 13 576 3
25 1 318 2 0 0 0 0 80 2 325 326 327 9000 0 0 0 0 3 5 0 0 0 FFTFFFFFFFFFFF9 1 79
 16 327 BODY_RECIPE_200180 1 323 328 329 9000 1 1 1 1 1 1 1 1 0 FFTFFFFFFFFFFF1
 82 1 324 1044493 79 10 329 BODY_MATCH80 2 321 330 331 9000 0 0 0 0 3 5 0 0 0 FF
TFFFFFFFFFFF9 1 82 1 322 160 79 30 331 LAST_BODY_MODIFYING_FEATURE_ID80 2 319 33
2 333 9000 0 0 0 0 3 5 0 0 0 FFTFFFFFFFFFFF9 1 82 1 320 138 79 19 333 ENT_TIME_S
TAMP_200180 2 12 334 335 9000 0 0 0 0 3 5 0 0 0 FFTFFFFFFFFFFF9 1 82 1 14 112 79
 12 335 ATOM_ID_20011 0 
